#!OML:ASF X:\für Bonn\!DataBase\2005_08_12_Daniel\c3d\Daniel.ASF
:FULLY-SPECIFIED
:DEGREES
656
root 10.4115 17.2632 -12.6846 -5.53239 -40.598 0.0466618
lowerback 15.4781 1.17287 -1.95538
upperback 2.68915 0.960729 -2.97058
thorax -5.79731 0.451956 -2.23093
lowerneck -0.908167 6.31528 -3.09044
upperneck 8.57825 9.19298 -9.13575
head 3.28095 4.10431 -2.17344
rclavicle -7.65321e-015 -7.95139e-015
rhumerus -32.4373 -22.0209 -80.9775
rradius 14.4112
rwrist 39.1335
rhand -13.661 17.0412
rfingers 7.12502
rthumb 12.4559 -12.5677
lclavicle -7.65321e-015 -7.95139e-015
lhumerus -41.9593 52.1447 59.3198
lradius 15.8339
lwrist -47.5572
lhand -11.9657 -3.24677
lfingers 7.12502
lthumb 14.0901 26.2555
rfemur -6.35359 -4.25348 13.9834
rtibia 71.2678
rfoot 2.42781 -0.0086146
rtoes -16.378
lfemur -18.9663 -0.104732 -28.7521
ltibia 44.4931
lfoot -17.993 -2.78857
ltoes -2.43763
657
root 10.3117 17.3035 -12.5249 -5.36109 -40.2106 -0.237636
lowerback 15.2865 0.997558 -1.60084
upperback 2.68945 0.802391 -2.89812
thorax -5.69186 0.37014 -2.31816
lowerneck -0.895841 6.43829 -3.15674
upperneck 8.87699 9.38328 -9.10324
head 3.3845 4.18149 -2.14401
rclavicle -1.32291e-013 3.10104e-014
rhumerus -32.9833 -22.6319 -80.3619
rradius 14.3449
rwrist 39.6892
rhand -13.8978 16.7762
rfingers 7.12502
rthumb 12.2277 -12.8464
lclavicle -1.32291e-013 3.10104e-014
lhumerus -38.0653 47.9045 64.7597
lradius 17.0393
lwrist -42.7587
lhand -12.2383 -3.57632
lfingers 7.12502
lthumb 13.8274 25.9441
rfemur -7.8504 -3.99285 14.4473
rtibia 71.6301
rfoot 2.06784 0.63613
rtoes -16.3702
lfemur -17.9297 -0.465958 -28.6758
ltibia 44.0182
lfoot -18.3543 -2.78745
ltoes -2.56805
658
root 10.2129 17.3406 -12.3651 -5.20717 -39.7908 -0.448573
lowerback 15.0346 0.82837 -1.28487
upperback 2.71276 0.645124 -2.84392
thorax -5.53068 0.289617 -2.40253
lowerneck -1.03084 6.54568 -3.2443
upperneck 9.25285 9.56942 -9.03933
head 3.53969 4.24903 -2.09531
rclavicle 9.84978e-014 6.36111e-015
rhumerus -33.3945 -22.987 -79.8604
rradius 14.2079
rwrist 39.8038
rhand -14.2692 16.6454
rfingers 7.12502
rthumb 11.8695 -12.9982
lclavicle 9.84978e-014 6.36111e-015
lhumerus -35.1478 43.9352 69.0154
lradius 18.2046
lwrist -38.5507
lhand -12.6063 -3.96169
lfingers 7.12502
lthumb 13.4727 25.5826
rfemur -9.31277 -3.70415 14.834
rtibia 71.8188
rfoot 1.68714 1.09306
rtoes -16.4011
lfemur -16.9092 -0.823257 -28.6534
ltibia 43.5194
lfoot -18.6517 -2.86812
ltoes -2.23861
659
root 10.113 17.3781 -12.2066 -4.9928 -39.3586 -0.764167
lowerback 14.7943 0.649982 -0.86486
upperback 2.72921 0.487528 -2.81562
thorax -5.38325 0.207262 -2.57517
lowerneck -1.08721 6.64079 -3.23298
upperneck 9.5862 9.72323 -8.93829
head 3.66748 4.31014 -2.05444
rclavicle 7.15625e-015 -4.77083e-015
rhumerus -33.9174 -23.6649 -79.3004
rradius 14.1045
rwrist 39.9513
rhand -14.7398 16.5119
rfingers 7.12502
rthumb 11.4157 -13.1573
lclavicle 7.15625e-015 -4.77083e-015
lhumerus -32.9744 40.2039 72.271
lradius 19.3874
lwrist -34.7761
lhand -12.8103 -4.53515
lfingers 7.12502
lthumb 13.276 25.022
rfemur -10.7419 -3.3848 15.345
rtibia 71.8509
rfoot 1.22867 1.23378
rtoes -16.3832
lfemur -15.8989 -1.1342 -28.5352
ltibia 43.0208
lfoot -18.9673 -2.98845
ltoes -2.04697
660
root 10.0139 17.4115 -12.0478 -4.79318 -38.8835 -1.00908
lowerback 14.5443 0.469775 -0.52296
upperback 2.72416 0.314523 -2.76174
thorax -5.25657 0.119114 -2.67497
lowerneck -1.16902 6.7298 -3.24794
upperneck 9.93125 9.88053 -8.92936
head 3.81033 4.36669 -2.03892
rclavicle -9.64106e-015 3.26007e-014
rhumerus -34.3458 -23.5637 -79.0447
rradius 14.1195
rwrist 39.148
rhand -15.214 16.3917
rfingers 7.12502
rthumb 10.9583 -13.3023
lclavicle -9.64106e-015 3.26007e-014
lhumerus -31.4074 37.0407 74.8399
lradius 20.5784
lwrist -31.7626
lhand -13.0523 -5.07873
lfingers 7.12502
lthumb 13.0428 24.4935
rfemur -12.1562 -3.05414 15.7956
rtibia 71.7568
rfoot 0.732903 1.4011
rtoes -15.9843
lfemur -14.9246 -1.46677 -28.4886
ltibia 42.5398
lfoot -19.2696 -3.05083
ltoes -2.05253
661
root 9.91338 17.4437 -11.8904 -4.61781 -38.3381 -1.23632
lowerback 14.3177 0.270082 -0.251093
upperback 2.71507 0.103479 -2.68996
thorax -5.15047 0.0134735 -2.71078
lowerneck -1.28253 6.83684 -3.26745
upperneck 10.3189 10.0622 -8.84684
head 3.97065 4.43505 -1.99512
rclavicle -1.13307e-014 1.59028e-015
rhumerus -34.7855 -23.5023 -78.7328
rradius 14.1345
rwrist 38.4214
rhand -15.6507 16.2787
rfingers 7.12502
rthumb 10.5371 -13.4372
lclavicle -1.13307e-014 1.59028e-015
lhumerus -30.2219 34.0171 76.9902
lradius 21.885
lwrist -28.8919
lhand -13.1936 -5.65311
lfingers 7.12502
lthumb 12.9066 23.9278
rfemur -13.5014 -2.81513 16.2054
rtibia 71.5169
rfoot 0.0919687 1.62665
rtoes -15.5033
lfemur -13.944 -1.96599 -28.461
ltibia 42.0897
lfoot -19.5754 -3.07402
ltoes -1.91223
662
root 9.81148 17.4735 -11.7316 -4.40208 -37.7729 -1.51457
lowerback 14.0503 0.0754571 0.0968938
upperback 2.7139 -0.0915874 -2.63407
thorax -5.01423 -0.0852168 -2.81052
lowerneck -1.33069 6.92297 -3.26771
upperneck 10.6536 10.2039 -8.75368
head 4.09901 4.48969 -1.95467
rclavicle -4.05521e-014 2.38542e-015
rhumerus -35.2316 -23.547 -78.4405
rradius 14.1808
rwrist 37.5256
rhand -16.0235 16.2425
rfingers 7.12502
rthumb 10.1775 -13.4913
lclavicle -4.05521e-014 2.38542e-015
lhumerus -29.2801 31.2957 78.7537
lradius 23.1887
lwrist -26.3914
lhand -13.2062 -6.25098
lfingers 7.12502
lthumb 12.8944 23.3307
rfemur -14.7652 -2.56967 16.6516
rtibia 71.1338
rfoot -0.566941 1.74054
rtoes -14.3383
lfemur -12.9865 -2.53724 -28.4027
ltibia 41.6685
lfoot -19.8957 -3.00677
ltoes -1.82094
663
root 9.70702 17.4974 -11.5746 -4.22324 -37.1254 -1.73311
lowerback 13.7755 -0.137629 0.367352
upperback 2.69038 -0.323759 -2.5605
thorax -4.90076 -0.200964 -2.84265
lowerneck -1.26663 7.01421 -3.41847
upperneck 10.9451 10.3382 -8.59686
head 4.17625 4.54224 -1.87134
rclavicle 1.27222e-014 -3.26007e-014
rhumerus -35.7598 -23.6031 -78.0395
rradius 14.2237
rwrist 36.777
rhand -16.483 16.2287
rfingers 7.12502
rthumb 9.73416 -13.5264
lclavicle 1.27222e-014 -3.26007e-014
lhumerus -28.5551 28.638 80.2786
lradius 24.4861
lwrist -24.0424
lhand -13.2227 -6.69879
lfingers 7.12502
lthumb 12.8786 22.8839
rfemur -15.9499 -2.38846 17.0369
rtibia 70.6098
rfoot -1.35146 1.93365
rtoes -13.6342
lfemur -12.0703 -3.00815 -28.3592
ltibia 41.3165
lfoot -20.2122 -3.11761
ltoes -1.84536
664
root 9.59946 17.518 -11.4205 -4.10849 -36.4051 -1.90532
lowerback 13.5022 -0.358205 0.581523
upperback 2.71017 -0.576541 -2.49945
thorax -4.74452 -0.325761 -2.854
lowerneck -1.14126 7.08657 -3.50985
upperneck 11.1131 10.439 -8.54787
head 4.20749 4.58404 -1.83884
rclavicle -6.19214e-014 -8.74653e-015
rhumerus -36.1946 -23.5197 -77.755
rradius 14.3067
rwrist 35.7096
rhand -16.8152 16.3524
rfingers 7.12502
rthumb 9.41367 -13.4174
lclavicle -6.19214e-014 -8.74653e-015
lhumerus -27.8936 26.4227 81.53
lradius 25.7323
lwrist -22.1314
lhand -13.1161 -7.28278
lfingers 7.12502
lthumb 12.9812 22.2934
rfemur -16.9871 -2.18364 17.3843
rtibia 69.939
rfoot -2.21266 1.97842
rtoes -13.0564
lfemur -11.1548 -3.47454 -28.3392
ltibia 41.0074
lfoot -20.5021 -3.29226
ltoes -1.78373
665
root 9.48969 17.5264 -11.2713 -3.94886 -35.7241 -2.12559
lowerback 13.2261 -0.57715 0.778032
upperback 2.70219 -0.829572 -2.40363
thorax -4.61639 -0.450511 -2.82076
lowerneck -0.867929 7.19884 -3.80539
upperneck 11.2038 10.5641 -8.34158
head 4.15798 4.64387 -1.72388
rclavicle 7.17613e-014 -3.18055e-015
rhumerus -36.618 -23.0305 -77.6847
rradius 14.4933
rwrist 34.2425
rhand -17.0846 16.2939
rfingers 7.12502
rthumb 9.1537 -13.4874
lclavicle 7.17613e-014 -3.18055e-015
lhumerus -27.421 24.2926 82.6179
lradius 27.0442
lwrist -20.3507
lhand -13.0618 -7.67419
lfingers 7.12502
lthumb 13.0336 21.8986
rfemur -17.9587 -1.90049 17.8037
rtibia 69.0607
rfoot -3.17056 1.86397
rtoes -13.074
lfemur -10.3007 -3.88209 -28.2456
ltibia 40.7637
lfoot -20.84 -3.47811
ltoes -1.73577
